<svg width="75" height="75" viewBox="0 0 75 75" fill="none" xmlns="http://www.w3.org/2000/svg">
<g clip-path="url(#clip0_1589_757)">
<path fill-rule="evenodd" clip-rule="evenodd" d="M37.5 6.25C20.2406 6.25 6.25 20.2406 6.25 37.5C6.25 54.7594 20.2406 68.75 37.5 68.75C54.7594 68.75 68.75 54.7594 68.75 37.5C68.75 20.2406 54.7594 6.25 37.5 6.25ZM26.5625 29.6875C26.5625 28.2512 26.8454 26.8289 27.3951 25.5019C27.9447 24.1749 28.7504 22.9692 29.766 21.9535C30.7817 20.9379 31.9874 20.1322 33.3144 19.5826C34.6414 19.0329 36.0637 18.75 37.5 18.75C38.9363 18.75 40.3586 19.0329 41.6856 19.5826C43.0126 20.1322 44.2183 20.9379 45.234 21.9535C46.2496 22.9692 47.0553 24.1749 47.6049 25.5019C48.1546 26.8289 48.4375 28.2512 48.4375 29.6875C48.4375 32.5883 47.2852 35.3703 45.234 37.4215C43.1828 39.4727 40.4008 40.625 37.5 40.625C34.5992 40.625 31.8172 39.4727 29.766 37.4215C27.7148 35.3703 26.5625 32.5883 26.5625 29.6875ZM57.0562 53.075C54.7162 56.0167 51.7422 58.3921 48.356 60.0241C44.9699 61.656 41.2589 62.5024 37.5 62.5C33.7411 62.5024 30.0301 61.656 26.644 60.0241C23.2578 58.3921 20.2838 56.0167 17.9438 53.075C23.0094 49.4406 29.9219 46.875 37.5 46.875C45.0781 46.875 51.9906 49.4406 57.0562 53.075Z" fill="black"/>
</g>
<defs>
<clipPath id="clip0_1589_757">
<rect width="75" height="75" fill="white"/>
</clipPath>
</defs>
</svg>
