<svg width="26" height="26" viewBox="0 0 26 26" fill="none" xmlns="http://www.w3.org/2000/svg">
<path d="M14.3204 4.32196C14.6329 4.00951 15.0568 3.83398 15.4987 3.83398C15.9406 3.83398 16.3645 4.00951 16.677 4.32196L24.177 11.822C24.4895 12.1345 24.665 12.5584 24.665 13.0003C24.665 13.4422 24.4895 13.8661 24.177 14.1786L16.677 21.6786C16.3627 21.9822 15.9417 22.1502 15.5047 22.1464C15.0677 22.1426 14.6497 21.9673 14.3407 21.6583C14.0317 21.3493 13.8564 20.9313 13.8526 20.4943C13.8488 20.0573 14.0168 19.6363 14.3204 19.322L18.832 14.667H2.9987C2.55667 14.667 2.13275 14.4914 1.82019 14.1788C1.50763 13.8662 1.33203 13.4423 1.33203 13.0003C1.33203 12.5583 1.50763 12.1343 1.82019 11.8218C2.13275 11.5092 2.55667 11.3336 2.9987 11.3336H18.832L14.3204 6.67863C14.0079 6.36608 13.8324 5.94224 13.8324 5.50029C13.8324 5.05835 14.0079 4.63451 14.3204 4.32196Z" fill="white"/>
</svg>
