<svg width="41" height="41" viewBox="0 0 41 41" fill="none" xmlns="http://www.w3.org/2000/svg">
<g clip-path="url(#clip0_1568_78)">
<path d="M17.9362 34.1673C17.9362 34.8469 18.2062 35.4987 18.6867 35.9793C19.1673 36.4598 19.8191 36.7298 20.4987 36.7298C21.1783 36.7298 21.8301 36.4598 22.3107 35.9793C22.7912 35.4987 23.0612 34.8469 23.0612 34.1673V23.0632H34.1654C34.845 23.0632 35.4968 22.7932 35.9773 22.3126C36.4579 21.8321 36.7279 21.1803 36.7279 20.5007C36.7279 19.821 36.4579 19.1693 35.9773 18.6887C35.4968 18.2081 34.845 17.9382 34.1654 17.9382H23.0612V6.83398C23.0612 6.15437 22.7912 5.50259 22.3107 5.02202C21.8301 4.54146 21.1783 4.27148 20.4987 4.27148C19.8191 4.27148 19.1673 4.54146 18.6867 5.02202C18.2062 5.50259 17.9362 6.15437 17.9362 6.83398V17.9382H6.83203C6.15241 17.9382 5.50063 18.2081 5.02007 18.6887C4.53951 19.1693 4.26953 19.821 4.26953 20.5007C4.26953 21.1803 4.53951 21.8321 5.02007 22.3126C5.50063 22.7932 6.15241 23.0632 6.83203 23.0632H17.9362V34.1673Z" fill="white"/>
</g>
<defs>
<clipPath id="clip0_1568_78">
<rect width="41" height="41" fill="white"/>
</clipPath>
</defs>
</svg>
