<svg width="58" height="59" viewBox="0 0 58 59" fill="none" xmlns="http://www.w3.org/2000/svg">
<path d="M36.858 40.9758C37.3386 41.4563 37.9904 41.7263 38.67 41.7263C39.3496 41.7263 40.0014 41.4563 40.4819 40.9758C40.9625 40.4952 41.2325 39.8434 41.2325 39.1638C41.2325 38.4842 40.9625 37.8324 40.4819 37.3518L32.6301 29.5L40.4819 21.6482C40.9625 21.1676 41.2325 20.5158 41.2325 19.8362C41.2325 19.1566 40.9625 18.5048 40.4819 18.0242C40.0014 17.5437 39.3496 17.2737 38.67 17.2737C37.9904 17.2737 37.3386 17.5437 36.858 18.0242L29.0062 25.8761L21.1544 18.0242C20.6738 17.5437 20.022 17.2737 19.3424 17.2737C18.6628 17.2737 18.011 17.5437 17.5304 18.0242C17.0499 18.5048 16.7799 19.1566 16.7799 19.8362C16.7799 20.5158 17.0499 21.1676 17.5304 21.6482L25.3823 29.5L17.5304 37.3518C17.0499 37.8324 16.7799 38.4842 16.7799 39.1638C16.7799 39.8434 17.0499 40.4952 17.5304 40.9758C18.011 41.4563 18.6628 41.7263 19.3424 41.7263C20.022 41.7263 20.6738 41.4563 21.1544 40.9758L29.0062 33.1239L36.858 40.9758Z" fill="white"/>
</svg>
