<svg width="51" height="51" viewBox="0 0 51 51" fill="none" xmlns="http://www.w3.org/2000/svg">
<path d="M44.625 44.625L31.875 31.875M6.375 21.25C6.375 23.2034 6.75975 25.1377 7.50729 26.9424C8.25483 28.7471 9.35052 30.3869 10.7318 31.7682C12.1131 33.1495 13.7529 34.2452 15.5576 34.9927C17.3623 35.7403 19.2966 36.125 21.25 36.125C23.2034 36.125 25.1377 35.7403 26.9424 34.9927C28.7471 34.2452 30.3869 33.1495 31.7682 31.7682C33.1495 30.3869 34.2452 28.7471 34.9927 26.9424C35.7403 25.1377 36.125 23.2034 36.125 21.25C36.125 19.2966 35.7403 17.3623 34.9927 15.5576C34.2452 13.7529 33.1495 12.1131 31.7682 10.7318C30.3869 9.35052 28.7471 8.25483 26.9424 7.50729C25.1377 6.75975 23.2034 6.375 21.25 6.375C19.2966 6.375 17.3623 6.75975 15.5576 7.50729C13.7529 8.25483 12.1131 9.35052 10.7318 10.7318C9.35052 12.1131 8.25483 13.7529 7.50729 15.5576C6.75975 17.3623 6.375 19.2966 6.375 21.25Z" stroke="#D27C2C" stroke-width="5" stroke-linecap="round" stroke-linejoin="round"/>
</svg>
