<svg width="150" height="150" viewBox="0 0 150 150" fill="none" xmlns="http://www.w3.org/2000/svg">
<g clip-path="url(#clip0_1970_610)">
<mask id="mask0_1970_610" style="mask-type:luminance" maskUnits="userSpaceOnUse" x="0" y="0" width="150" height="150">
<path d="M0 0H150V150H0V0Z" fill="white"/>
</mask>
<g mask="url(#mask0_1970_610)">
<path fill-rule="evenodd" clip-rule="evenodd" d="M108.844 89.8877C106.981 88.9565 97.85 84.469 96.15 83.844C94.45 83.2252 93.2125 82.919 91.9688 84.7815C90.7313 86.6377 87.175 90.819 86.0938 92.0565C85.0063 93.3002 83.925 93.4502 82.0688 92.5252C80.2125 91.5877 74.225 89.6315 67.1313 83.3065C61.6125 78.3815 57.8813 72.3002 56.8 70.4377C55.7188 68.5815 56.6813 67.5752 57.6125 66.6502C58.45 65.819 59.4688 64.4815 60.4 63.4002C61.3313 62.3127 61.6375 61.5377 62.2563 60.294C62.8813 59.0565 62.5688 57.9752 62.1 57.044C61.6375 56.1127 57.925 46.969 56.375 43.2502C54.8688 39.6315 53.3375 40.1252 52.2 40.0627C51.1125 40.0127 49.875 40.0002 48.6375 40.0002C47.4 40.0002 45.3875 40.4627 43.6875 42.3252C41.9813 44.1815 37.1875 48.6752 37.1875 57.819C37.1875 66.9565 43.8375 75.7877 44.7688 77.0315C45.7 78.269 57.8625 97.0315 76.4938 105.075C80.9313 106.988 84.3875 108.131 87.0813 108.981C91.5313 110.4 95.5813 110.2 98.7813 109.719C102.344 109.188 109.769 105.225 111.319 100.888C112.863 96.5502 112.863 92.8315 112.4 92.0565C111.938 91.2815 110.7 90.819 108.838 89.8877M74.95 136.156H74.925C63.8589 136.159 52.9961 133.184 43.475 127.544L41.225 126.206L17.8375 132.344L24.0813 109.544L22.6125 107.206C16.4259 97.3587 13.1518 85.9614 13.1688 74.3315C13.1813 40.269 40.8938 12.5565 74.975 12.5565C83.0918 12.5353 91.1321 14.126 98.6294 17.2362C106.127 20.3465 112.932 24.9145 118.65 30.6752C124.402 36.4031 128.961 43.2145 132.063 50.7155C135.166 58.2164 136.75 66.258 136.725 74.3752C136.713 108.438 109 136.156 74.95 136.156ZM127.525 21.8002C120.639 14.8693 112.447 9.37353 103.422 5.63145C94.3974 1.88937 84.7198 -0.0246651 74.95 0.000239953C33.9875 0.000239953 0.6375 33.344 0.625 74.3252C0.606019 87.3674 4.02734 100.184 10.5438 111.481L0 150L39.4 139.663C50.2992 145.601 62.5131 148.712 74.925 148.713H74.9563C115.919 148.713 149.269 115.369 149.281 74.3815C149.311 64.6145 147.405 54.9384 143.671 45.9129C139.938 36.8875 134.452 28.6919 127.531 21.8002" fill="#FB9600"/>
</g>
</g>
<defs>
<clipPath id="clip0_1970_610">
<rect width="150" height="150" fill="white"/>
</clipPath>
</defs>
</svg>
